<svg xml:space="preserve" viewBox="0 0 100 100" y="0" x="0" xmlns="http://www.w3.org/2000/svg" id="圖層_1" version="1.1" preserveAspectRatio="xMidYMid" width="200" height="200" xmlns:xlink="http://www.w3.org/1999/xlink" style="margin-top:0px;margin-right:0px;margin-bottom:0px;margin-left:0px;display:block;shape-rendering:auto;background-position-x:0%;background-position-y:0%;background-size:auto;background-origin:padding-box;background-clip:border-box;background:scroll rgba(0, 0, 0, 0) none  repeat;width:200px;height:200px;;animation:none"><g class="ldl-scale" style="transform-origin:50px 50px;transform:matrix(0.8, 0, 0, 0.8, 0, 0);;animation:none"><g class="ldl-ani"><g class="ldl-layer"><g class="ldl-ani"><g><g class="ldl-layer"><g class="ldl-ani" style="transform-origin:50px 50px;transform:matrix(1.01568, 0, 0, 1.01568, 0, 0);animation-duration:1s;animation-timing-function:linear;animation-delay:-0.625s;animation-iteration-count:infinite;animation-direction:normal;animation-fill-mode:forwards;animation-play-state:paused;animation-name:animate;animation-timeline:auto;animation-range-start:normal;animation-range-end:normal;transform-box:view-box;;animation:none"><path fill="#77a4bd" d="M82.5 68.1c-3 0-5.9-1.1-8.1-3-2.3 1.9-5.1 3-8.1 3s-5.9-1.1-8.1-3c-2.3 1.9-5.1 3-8.1 3s-5.9-1.1-8.1-3c-2.3 1.9-5.1 3-8.1 3s-5.9-1.1-8.1-3c-2.3 1.9-5.1 3-8.1 3-3.7 0-7.2-1.6-9.6-4.4-.7-.8-.6-2 .2-2.7.8-.7 2-.6 2.7.2 1.7 2 4.1 3.1 6.7 3.1s5-1.1 6.7-3.1l1.5-1.7 1.5 1.7c1.7 2 4.1 3.1 6.7 3.1s5-1.1 6.7-3.1l1.5-1.7 1.5 1.7c1.7 2 4.1 3.1 6.7 3.1s5-1.1 6.7-3.1l1.5-1.7 1.5 1.7c1.7 2 4.1 3.1 6.7 3.1s5-1.1 6.7-3.1l1.5-1.7 1.5 1.7c1.7 2 4.1 3.1 6.7 3.1s5-1.1 6.7-3.1c.7-.8 1.9-.9 2.7-.2.8.7.9 1.9.2 2.7-3.2 2.8-6.7 4.4-10.4 4.4z" style="stroke-width:1px;fill:rgb(119, 164, 189);;animation:none"></path></g></g></g></g></g>
<g class="ldl-layer"><g class="ldl-ani"><g><g class="ldl-layer"><g class="ldl-ani" style="transform-origin:50px 50px;transform:matrix(0.97254, 0, 0, 0.97254, 0, 0);animation-duration:1s;animation-timing-function:linear;animation-delay:-0.75s;animation-iteration-count:infinite;animation-direction:normal;animation-fill-mode:forwards;animation-play-state:paused;animation-name:animate;animation-timeline:auto;animation-range-start:normal;animation-range-end:normal;transform-box:view-box;;animation:none"><path fill="#77a4bd" d="M74.8 81.9c-3 0-5.9-1.1-8.1-3-2.3 1.9-5.1 3-8.1 3s-5.9-1.1-8.1-3c-2.3 1.9-5.1 3-8.1 3s-5.9-1.1-8.1-3c-2.3 1.9-5.1 3-8.1 3-3.7 0-7.2-1.6-9.6-4.4-.7-.8-.6-2 .2-2.7.8-.7 2-.6 2.7.2 1.7 2 4.1 3.1 6.7 3.1 2.6 0 5-1.1 6.7-3.1l1.5-1.7 1.5 1.7c1.7 2 4.1 3.1 6.7 3.1 2.6 0 5-1.1 6.7-3.1l1.5-1.7 1.5 1.7c1.7 2 4.1 3.1 6.7 3.1 2.6 0 5-1.1 6.7-3.1l1.5-1.7 1.5 1.7c1.7 2 4.1 3.1 6.7 3.1 2.6 0 5-1.1 6.7-3.1.7-.8 1.9-.9 2.7-.2.8.7.9 1.9.2 2.7-3.1 2.8-6.5 4.4-10.2 4.4z" style="stroke-width:1px;fill:rgb(119, 164, 189);;animation:none"></path></g></g></g></g></g>
<g class="ldl-layer"><g class="ldl-ani" style="transform-origin:50px 50px;transform:matrix(0.921517, 0, 0, 0.921517, 0, 0);animation-duration:1s;animation-timing-function:linear;animation-delay:-0.875s;animation-iteration-count:infinite;animation-direction:normal;animation-fill-mode:forwards;animation-play-state:paused;animation-name:animate;animation-timeline:auto;animation-range-start:normal;animation-range-end:normal;transform-box:view-box;;animation:none"><path fill="#a0c8d7" d="M48.5 62.5c-2.3-2.7-3.9-5.8-4.8-9.1-1.3-4.9-1.1-10.1.8-15.2 1.2-3.3 3.7-8 8.5-11.1 4.5-2.9 10.2-3.6 14.7-1.9.4.2.9.4 1.3.6-3.5-3-8.9-4.3-14.1-3.9-4.6.4-8.3 1.5-11.2 3.5-2.7 1.8-5 4.4-7.4 8.6-2.4 4.1-4.3 8.5-6.1 12.8-1.9 4.4-3.9 9-6.4 13.3-.6 1-1.2 2.1-2 3.1.9-.5 1.8-1.2 2.5-2l1.5-1.7 1.5 1.7c1.7 2 4.1 3.1 6.7 3.1s5-1.1 6.7-3.1l1.5-1.7 1.5 1.7c1.7 2 4.1 3.1 6.7 3.1h.2c-1-.6-1.5-1.1-2.1-1.8z" style="stroke-width:1px;fill:rgb(160, 200, 215);;animation:none"></path></g></g>
<g class="ldl-layer"><g class="ldl-ani" style="transform-origin:50px 50px;transform:matrix(0.91, 0, 0, 0.91, 0, 0);animation-duration:1s;animation-timing-function:linear;animation-delay:-1s;animation-iteration-count:infinite;animation-direction:normal;animation-fill-mode:forwards;animation-play-state:paused;animation-name:animate;animation-timeline:auto;animation-range-start:normal;animation-range-end:normal;transform-box:view-box;;animation:none"><path fill="#77a4bd" d="M76.5 32.3c-1.2-10.3-12-14.9-21.9-14.1-5.2.4-9.6 1.8-13 4.1-4.1 2.7-6.7 6.7-8.5 9.8-2.5 4.3-4.4 8.8-6.3 13.2-1.9 4.3-3.8 8.8-6.2 12.9-1.3 2.2-2.8 4.4-5 5.7 0 0-.1 0-.2.1s-.2.1-.4.1a2 2 0 0 0-1.4 2.3c.2.7.7 1.2 1.4 1.4.9.2 1.7.3 2.6.3 3 0 5.9-1.1 8.1-3 2.3 1.9 5.1 3 8.1 3s5.9-1.1 8.1-3c2.3 1.9 5.1 3 8.1 3 1.8 0 3.6-.4 5.2-1.1.4-.1.7-.4.9-.7.6-.9.3-2.1-.6-2.6l-.9-.6c-1.1-.8-2.2-1.8-3.1-2.9-1.9-2.3-3.3-4.9-4.1-7.7-1.1-4.1-.9-8.6.7-12.9 1-2.8 3-6.7 6.9-9.2 3.4-2.2 7.9-2.8 11.3-1.5 2.7 1 4.9 3.3 5.6 5.8.3 1.3.3 2.6 0 4-.3.8-.8 1.8-1.3 2.8-.2.2-.3.4-.5.6-1.2 1.4-3.4 2.5-5.3 2.1-1.1-.3-2.1-1.2-2.3-2.3-.2-1 .4-2.1 1.4-2.7.9-.5 1.2-1.7.7-2.6-.5-.9-1.7-1.2-2.6-.7-2.3 1.4-3.6 4-3.2 6.6.4 2.5 2.5 4.7 5.1 5.3.6.2 1.2.2 1.8.2 2.6 0 5.3-1.2 7.2-3.4.3-.3.5-.6.8-1 .8-1.1 1.4-2.3 1.8-3.7 1-2.5 1.3-4.9 1-7.6zM54.8 67.1h-.4.4zm12.9-41.8c-4.6-1.7-10.2-1-14.7 1.9-4.8 3.1-7.2 7.7-8.5 11.1-1.8 5.1-2.1 10.3-.8 15.2.9 3.3 2.6 6.4 4.8 9.1.5.6 1.1 1.2 1.7 1.7H50c-2.6 0-5-1.1-6.7-3.1l-1.5-1.7-1.5 1.7c-1.7 2-4.1 3.1-6.7 3.1s-5-1.1-6.7-3.1l-1.5-1.7-1.5 1.7c-.7.8-1.6 1.5-2.5 2 .8-1 1.4-2.1 2-3.1 2.5-4.3 4.5-8.9 6.4-13.3 1.9-4.3 3.8-8.7 6.1-12.8 2.4-4.1 4.7-6.8 7.4-8.6 2.9-1.9 6.7-3.1 11.2-3.5 5.2-.4 10.6.9 14.1 3.9-.1-.2-.5-.4-.9-.5z" style="stroke-width:1px;fill:rgb(119, 164, 189);;animation:none"></path></g></g>
<metadata xmlns:d="https://loading.io/stock/"></metadata></g></g>
<STYLE type="text/css">@keyframes animate { 0.00% {transform: translate(0.00px,0.00px) rotate(0.00deg) scale(0.91, 0.91) skew(0deg, 0.00deg) ;opacity: 1.00;}4.00% {transform: translate(0.00px,0.00px) rotate(0.00deg) scale(0.91, 0.91) ;}8.00% {animation-timing-function: cubic-bezier(0.69,0.60,0.35,0.27);transform: translate(0.00px,0.00px) rotate(0.00deg) scale(0.91, 0.91) ;}14.00% {transform: translate(0.00px,0.00px) rotate(0.00deg) scale(0.93, 0.93) ;}18.00% {transform: translate(0.00px,0.00px) rotate(0.00deg) scale(0.94, 0.94) ;}22.00% {animation-timing-function: cubic-bezier(0.67,0.66,0.34,0.33);transform: translate(0.00px,0.00px) rotate(0.00deg) scale(0.96, 0.96) ;}26.00% {transform: translate(0.00px,0.00px) rotate(0.00deg) scale(0.97, 0.97) ;}30.00% {transform: translate(0.00px,0.00px) rotate(0.00deg) scale(0.99, 0.99) ;}34.00% {animation-timing-function: cubic-bezier(0.65,0.71,0.32,0.38);transform: translate(0.00px,0.00px) rotate(0.00deg) scale(1.01, 1.01) ;}40.00% {animation-timing-function: cubic-bezier(0.64,0.74,0.31,0.41);transform: translate(0.00px,0.00px) rotate(0.00deg) scale(1.02, 1.02) ;}46.00% {animation-timing-function: cubic-bezier(0.60,0.91,0.23,0.63);transform: translate(0.00px,0.00px) rotate(0.00deg) scale(1.03, 1.03) ;}50.00% {transform: translate(0.00px,0.00px) rotate(0.00deg) scale(1.03, 1.03) ;}54.00% {transform: translate(0.00px,0.00px) rotate(0.00deg) scale(1.03, 1.03) ;}58.00% {animation-timing-function: cubic-bezier(0.69,0.60,0.35,0.27);transform: translate(0.00px,0.00px) rotate(0.00deg) scale(1.03, 1.03) ;}64.00% {transform: translate(0.00px,0.00px) rotate(0.00deg) scale(1.01, 1.01) ;}68.00% {transform: translate(0.00px,0.00px) rotate(0.00deg) scale(1.00, 1.00) ;}72.00% {animation-timing-function: cubic-bezier(0.67,0.66,0.34,0.33);transform: translate(0.00px,0.00px) rotate(0.00deg) scale(0.98, 0.98) ;}76.00% {animation-timing-function: cubic-bezier(0.66,0.68,0.33,0.35);transform: translate(0.00px,0.00px) rotate(0.00deg) scale(0.97, 0.97) ;}82.00% {animation-timing-function: cubic-bezier(0.65,0.71,0.32,0.38);transform: translate(0.00px,0.00px) rotate(0.00deg) scale(0.94, 0.94) ;}88.00% {animation-timing-function: cubic-bezier(0.65,0.73,0.31,0.40);transform: translate(0.00px,0.00px) rotate(0.00deg) scale(0.92, 0.92) ;}94.00% {animation-timing-function: cubic-bezier(0.63,0.80,0.28,0.48);transform: translate(0.00px,0.00px) rotate(0.00deg) scale(0.91, 0.91) ;}100.00% {animation-timing-function: cubic-bezier(0.63,0.80,0.28,0.48);transform: translate(0.00px,0.00px) rotate(0.00deg) scale(0.91, 0.91) ;} }</STYLE><!-- [ldio] generated by https://loading.io --></svg>